<svg xmlns="http://www.w3.org/2000/svg" width="140" height="23" viewBox="0 0 140 23">
    <defs>
        <linearGradient id="prefix__a" x1="-.005%" x2="100.003%" y1="50.028%" y2="50.028%">
            <stop offset="0%" stop-color="#1D2457"/>
            <stop offset="100%" stop-color="#2681C0"/>
        </linearGradient>
    </defs>
    <path fill="url(#prefix__a)" d="M8.072 21.121c-1.258 0-2.396-.204-3.399-.63-1.002-.424-1.852-1.002-2.532-1.734-.68-.73-1.223-1.615-1.58-2.602C.187 15.152 0 14.064 0 12.925c0-1.174.187-2.296.56-3.3.375-1.003.901-1.887 1.598-2.653.68-.748 1.547-1.343 2.532-1.768 1.003-.425 2.141-.646 3.399-.646.9 0 1.767.119 2.566.374.799.255 1.53.612 2.158 1.088.629.476 1.156 1.071 1.563 1.769.374.646.63 1.377.748 2.193h-2.838c-.17-.697-.578-1.411-1.223-2.023-.374-.357-1.258-1.055-2.991-1.055-1.088 0-2.022.29-2.702.715-.578.374-1.003.782-1.377 1.326-.373.544-.645 1.156-.815 1.837-.17.68-.255 1.394-.255 2.108 0 .698.085 1.548.255 2.211.17.663.442 1.276.815 1.803.374.544.867.969 1.462 1.292.765.408 1.75.578 2.617.578 1.19 0 2.379-.39 3.229-1.14.985-.866.951-1.649 1.427-2.193.527-.595 1.513-.561 2.022-.561h.493c-.102.901-.34 1.735-.697 2.466-.373.782-.883 1.462-1.512 2.024-.629.56-1.36.986-2.192 1.275-.833.323-1.767.476-2.77.476zM23.57 4.881h-3.093L14.41 20.713h3.042l1.598-4.354h5.845l1.156 3.147c.357.867 1.24 1.207 2.124 1.207h1.479L23.57 4.881zm-3.62 9.03l2.006-5.46 2.005 5.46h-4.01zm16.892.136l-.867-.017c-1.257 0-1.92-1.072-1.92-2.313l2.702-.017c.68 0 1.478-.017 1.852-.136.697-.221.952-.544 1.19-.918.204-.324.323-.834.323-1.31 0-.527-.153-1.156-.46-1.496-.373-.426-.832-.545-1.512-.613-.255-.017-1.02-.05-2.294-.05h-2.77v13.536h-2.838V4.898h6.628c1.852 0 2.838.119 3.636.425.765.272 1.36.782 1.819 1.496.459.715.68 1.53.68 2.466 0 1.174-.357 2.313-1.037 3.095-.595.68-1.24 1.123-2.04 1.395 0 0 .154.289.63 1.003l3.602 5.952c-1.07.374-1.36.357-1.87.357-.662 0-1.529-.357-2.09-1.224l-3.364-5.816zM51.83 7.21h-4.81c-1.257 0-1.92-1.054-1.92-2.278h7.223c1.444 0 2.549.153 3.535.612.883.408 1.597.935 2.192 1.65.594.697.985 1.513 1.274 2.533.255.85.391 1.786.391 2.942 0 1.276-.204 2.755-.578 3.725-.39 1.037-.866 1.785-1.495 2.431-.629.647-1.394 1.123-2.26 1.446-.867.323-2.175.493-3.178.493H45.1V8.163h2.94V18.4h3.28c.9 0 1.987-.102 2.633-.289.663-.204 1.19-.578 1.632-1.122.424-.527.645-1.038.866-1.786.272-.901.323-1.802.323-2.585 0-.918-.085-1.683-.425-2.67-.255-.73-.611-1.275-1.036-1.7-.425-.425-.935-.663-1.479-.834-.493-.119-1.291-.204-2.005-.204zm70.59-2.278h2.754v15.866h-1.716c-.63 0-1.122-.306-1.496-.8-.17-.22-7.358-11.087-7.358-11.087v11.887h-2.855V4.932h2.192c.833 0 1.58.493 2.056 1.139.493.646 6.407 10.05 6.407 10.05V4.931h.017zm-30.808 0h2.753V20.78h-1.717c-.628 0-1.121-.306-1.495-.816-.17-.221-7.341-11.071-7.341-11.071v11.87h-2.838V4.932h2.175c.816 0 1.58.493 2.073 1.122.493.646 6.39 10.033 6.39 10.033V4.932zm-12.898 0V20.73c-1.53 0-2.906-.85-2.906-2.38V4.931h2.906zm25.966-.017h-3.11l-6.1 15.9h3.058l1.614-4.37h5.863l1.156 3.163c.374.867 1.257 1.207 2.141 1.207h1.495l-6.117-15.9zm-3.62 9.064l2.022-5.476 2.023 5.476h-4.045zm36.434-5.306c-.595-.442-2.413-1.718-4.588-1.718-1.648 0-2.702.885-2.702 2.041 0 1.054.748 1.53 2.04 2.007l2.667.918c1.445.51 2.447 1.14 3.025 1.922.493.663.714 1.445.714 2.465 0 1.327-.578 2.551-1.632 3.453-1.138.986-2.736 1.496-4.656 1.496-2.345 0-4.265-.748-6.033-2.33l1.75-2.091c1.326 1.207 2.822 1.82 4.436 1.82 1.801 0 3.008-.851 3.008-2.092 0-1.02-.56-1.633-1.937-2.143l-2.855-.986c-1.24-.443-2.124-.987-2.72-1.667-.645-.731-.95-1.633-.95-2.738 0-1.275.594-2.432 1.664-3.282 1.071-.85 2.567-1.258 4.215-1.258 1.223 0 2.48.306 3.348.714.492.204.798.408 1.053.612.9.68 1.054 1.7.153 2.857zM78.714.153v.34c0 1.276-.425 2.704-2.532 2.704H65v5.697h8.429v3.044H65v8.809h-3.62V.17L78.714.153z" transform="translate(.667 .486)"/>
</svg>
