<svg width="78" height="18" viewBox="0 0 78 18" fill="none" xmlns="http://www.w3.org/2000/svg">
<g clip-path="url(#clip0_14129_47987)">
<path fill-rule="evenodd" clip-rule="evenodd" d="M43.2844 1.46006C43.2844 2.26632 42.6486 2.92012 41.8645 2.92012C41.0806 2.92012 40.4447 2.26632 40.4447 1.46006C40.4447 0.653798 41.0806 0 41.8645 0C42.6486 0 43.2844 0.653798 43.2844 1.46006ZM40.5985 13.8936H43.2131V3.75314H40.5985V13.8936ZM7.27 3.80965C7.76534 4.02669 8.17237 4.359 8.49085 4.80559C8.76108 5.18471 8.92612 5.57415 8.98619 5.97441C9.04615 6.37513 9.0763 7.02845 9.0763 7.9346V13.894H6.44341V7.71899C6.44341 7.17252 6.35351 6.73145 6.17417 6.39627C5.94066 5.92471 5.49745 5.68868 4.84478 5.68868C4.1683 5.68868 3.6548 5.92278 3.30454 6.3917C2.95427 6.86063 2.77913 7.52955 2.77913 8.39872V13.894H0.200684V0.0506058H2.77913V4.61903C3.25643 4.1345 3.49485 3.97724 3.97238 3.78203C4.47326 3.57722 5.0762 3.48383 5.61701 3.48383C6.22367 3.48383 6.77453 3.59235 7.27 3.80965ZM13.206 6.24936C12.8413 6.63545 12.6123 7.15887 12.5189 7.81892H16.9613C16.9144 7.11494 16.6855 6.58094 16.2745 6.21647C15.8633 5.85199 15.3536 5.66976 14.7451 5.66976C14.0833 5.66976 13.5703 5.86304 13.206 6.24936ZM17.0636 3.95878C17.7513 4.27572 18.3194 4.77561 18.7675 5.45895C19.1715 6.06136 19.4335 6.76006 19.5536 7.55552C19.6226 8.02108 19.6511 8.69193 19.6383 9.56782H12.4555C12.4957 10.5851 12.8393 11.2982 13.4869 11.7073C13.8809 11.9618 14.3546 12.0889 14.9086 12.0889C15.496 12.0889 15.9736 11.934 16.3405 11.6235C16.5405 11.4565 16.7176 11.2238 16.8709 10.9261H19.5038C19.4344 11.5278 19.1157 12.1386 18.5478 12.7588C17.6645 13.7448 16.4278 14.238 14.8372 14.238C13.5249 14.238 12.367 13.8222 11.3636 12.9902C10.3604 12.1585 9.85876 10.8055 9.85876 8.93058C9.85876 7.174 10.3116 5.82702 11.2173 4.88966C12.1229 3.95255 13.2987 3.48363 14.7441 3.48363C15.6022 3.48363 16.3754 3.64209 17.0636 3.95878ZM25.1779 5.84665C25.9639 5.84665 26.532 6.1475 26.8826 6.74896C27.2328 7.35066 27.4082 8.04215 27.4082 8.82344C27.4082 9.77232 27.2176 10.5322 26.8368 11.1027C26.4556 11.6734 25.9027 11.9587 25.1774 11.9587C24.6775 11.9587 24.2448 11.8192 23.8791 11.5402C23.2642 11.0626 22.9567 10.2348 22.9567 9.0561C22.9567 8.31202 23.048 7.69784 23.2308 7.21404C23.5844 6.30237 24.2331 5.84665 25.1779 5.84665ZM30.0684 8.69331C30.0684 7.00034 29.666 5.71628 28.8616 4.84159C28.0571 3.96737 27.0754 3.52991 25.9158 3.52991C25.1207 3.52991 24.4348 3.75656 23.858 4.20916C23.5423 4.46342 23.2451 4.81109 22.9658 5.2512V3.7532H20.4957V17.6205H23.0471V12.6008C23.3203 13.0286 23.5996 13.3542 23.8849 13.5775C24.4068 13.9803 25.0626 14.1821 25.8521 14.1821C27.0906 14.1821 28.1029 13.7138 28.8891 12.7772C29.6751 11.841 30.0684 10.4794 30.0684 8.69331ZM33.1698 10.6561C33.2241 11.1277 33.3422 11.4626 33.5244 11.6612C33.8455 12.0144 34.4393 12.1912 35.3059 12.1912C35.8152 12.1912 36.2199 12.1138 36.5197 11.9587C36.8197 11.8038 36.9694 11.5712 36.9694 11.261C36.9694 10.9632 36.849 10.7368 36.6072 10.5817C36.3655 10.4268 35.4663 10.1601 33.9094 9.78193C32.7888 9.49669 31.9993 9.14014 31.541 8.71203C31.0825 8.29018 30.8535 7.68248 30.8535 6.88846C30.8535 5.95206 31.2115 5.14724 31.9279 4.47447C32.644 3.80171 33.6519 3.46509 34.9519 3.46509C36.1846 3.46509 37.1898 3.71791 37.9665 4.22309C38.7432 4.72874 39.189 5.60151 39.304 6.84188H36.7254C36.689 6.50093 36.5954 6.23131 36.4441 6.0325C36.1599 5.67282 35.6758 5.49299 34.9925 5.49299C34.4298 5.49299 34.0293 5.58302 33.7904 5.76286C33.5515 5.94293 33.432 6.15375 33.432 6.39553C33.432 6.6995 33.559 6.91967 33.8133 7.05605C34.0671 7.19891 34.9647 7.44357 36.5054 7.79077C37.5326 8.03927 38.3026 8.41406 38.8153 8.9166C39.3223 9.42538 39.5754 10.0609 39.5754 10.8237C39.5754 11.8283 39.2111 12.6488 38.4828 13.2843C37.7545 13.9201 36.6287 14.238 35.106 14.238C33.5527 14.238 32.4059 13.9014 31.6654 13.2286C30.9249 12.5559 30.5548 11.6982 30.5548 10.6561H33.1698Z" fill="#FF6000"/>
<path fill-rule="evenodd" clip-rule="evenodd" d="M45.0024 8.62613C45.0024 5.70218 47.2888 3.32324 50.0994 3.32324C52.9904 3.32324 55.3251 5.86112 55.1684 8.91594C55.026 11.6973 52.7261 13.8462 50.0171 13.8462H49.977V13.846H48.8864V12.0853C48.8864 11.8094 49.1039 11.5856 49.3724 11.5856H49.977H50.0454C51.5587 11.5856 52.862 10.4063 52.9697 8.85399C53.0928 7.07388 51.7577 5.58381 50.0994 5.58381C48.501 5.58381 47.2007 6.93918 47.2007 8.60549V16.4967H45.0024V8.62613ZM56.3911 8.967C56.2415 5.89417 58.5828 3.34405 61.4811 3.34405C64.2331 3.34405 66.5579 5.79141 66.5579 8.68824V13.9289H64.3594V8.68824C64.3594 7.01664 63.0415 5.60461 61.4811 5.60461C59.8152 5.60461 58.473 7.10741 58.5898 8.90601C58.6916 10.4736 60.0051 11.6684 61.5334 11.6684H61.6035V11.6689H62.1882C62.4567 11.6689 62.6742 11.8927 62.6742 12.1685V13.9289H61.6035H61.5839H61.5617C58.838 13.9289 56.5274 11.7642 56.3911 8.967ZM75.3107 3.75315V11.7944C75.3107 13.5861 73.5543 14.7746 72.3923 14.7746H69.269V17.0351H72.3923C75.2139 17.0351 77.5093 14.6841 77.5093 11.7944V3.75315H75.3107ZM72.5094 13.8751L72.3845 13.8666C69.9557 13.7002 67.9389 11.3374 67.9804 8.707V3.75322H70.179V8.71204C70.1495 9.94762 70.8998 11.3512 72.3476 11.5573C72.4431 11.5688 72.5965 11.5806 72.8223 11.5786H73.6273V13.376C73.6273 13.6517 73.4099 13.8755 73.1414 13.8755H72.5094V13.8751Z" fill="#7723DB"/>
</g>
<defs>
<clipPath id="clip0_14129_47987">
<rect width="77.625" height="18" fill="white" transform="translate(0.1875)"/>
</clipPath>
</defs>
</svg>
