<svg width="101" height="33" viewBox="0 0 101 33" fill="none" xmlns="http://www.w3.org/2000/svg">
<path d="M65.7192 0C58.555 0 52.1527 3.71335 52.1527 10.5741C52.1527 18.442 63.5074 18.9854 63.5074 22.938C63.5074 24.6023 61.6001 26.0921 58.3426 26.0921C53.7195 26.0921 50.2642 24.0104 50.2642 24.0104L48.7857 30.9336C48.7857 30.9336 52.7662 32.692 58.0508 32.692C65.8836 32.692 72.0471 28.7964 72.0471 21.8183C72.0471 13.5045 60.6451 12.9772 60.6451 9.30848C60.6451 8.00475 62.2108 6.57626 65.459 6.57626C69.124 6.57626 72.1141 8.09021 72.1141 8.09021L73.561 1.40357C73.561 1.40357 70.3075 0 65.7192 0V0ZM0.173474 0.504654L0 1.51396C0 1.51396 3.014 2.06557 5.7286 3.16591C9.22387 4.42767 9.47285 5.1622 10.0615 7.44363L16.4761 32.1716H25.0749L38.3221 0.504654H29.743L21.2309 22.0352L17.7575 3.7849C17.4389 1.69616 15.8254 0.504654 13.8504 0.504654H0.173474V0.504654ZM41.7718 0.504654L35.0418 32.1716H43.2227L49.9291 0.504654H41.7718V0.504654ZM87.3995 0.504654C85.4268 0.504654 84.3816 1.56081 83.6147 3.40641L71.6291 32.1716H80.2082L81.8681 27.3774H92.3199L93.3292 32.1716H100.899L94.2952 0.504654H87.3995V0.504654ZM88.5153 9.06009L91.0583 20.9431H84.2455L88.5153 9.06009V9.06009Z" fill="#1434CB"/>
</svg>
